<?xml version="1.0" encoding="utf-8"?>
<!-- Generator: Adobe Illustrator 24.1.1, SVG Export Plug-In . SVG Version: 6.00 Build 0)  -->
<svg version="1.1" id="Layer_1" xmlns="http://www.w3.org/2000/svg" xmlns:xlink="http://www.w3.org/1999/xlink" x="0px" y="0px"
	 viewBox="0 0 1.1 1.4" style="enable-background:new 0 0 1.1 1.4;" xml:space="preserve">
<style type="text/css">
	.st0{fill:#FFFFFF;stroke:#FFFFFF;stroke-width:0.15;stroke-miterlimit:10;}
</style>
<path class="st0" d="M0.5,0.9v0.4l0.1,0.1c0,0,0,0,0,0l0.1-0.1V0.9C0.6,0.9,0.6,0.9,0.5,0.9C0.5,0.9,0.5,0.9,0.5,0.9z M0.6,0.1
	c-0.2,0-0.4,0.2-0.4,0.4s0.2,0.4,0.4,0.4s0.4-0.2,0.4-0.4S0.7,0.1,0.6,0.1z M0.6,0.3c-0.1,0-0.2,0.1-0.2,0.2c0,0,0,0,0,0s0,0,0,0
	C0.3,0.3,0.4,0.2,0.6,0.3C0.6,0.2,0.6,0.2,0.6,0.3C0.6,0.3,0.6,0.3,0.6,0.3z"/>
<path d="M0.5,0.9v0.4l0.1,0.1c0,0,0,0,0,0l0.1-0.1V0.9C0.6,0.9,0.6,0.9,0.5,0.9C0.5,0.9,0.5,0.9,0.5,0.9z M0.6,0.1
	c-0.2,0-0.4,0.2-0.4,0.4s0.2,0.4,0.4,0.4s0.4-0.2,0.4-0.4S0.7,0.1,0.6,0.1z M0.6,0.3c-0.1,0-0.2,0.1-0.2,0.2c0,0,0,0,0,0s0,0,0,0
	C0.3,0.3,0.4,0.2,0.6,0.3C0.6,0.2,0.6,0.2,0.6,0.3C0.6,0.3,0.6,0.3,0.6,0.3z"/>
</svg>
