<svg id="Layer_1" data-name="Layer 1" xmlns="http://www.w3.org/2000/svg" viewBox="0 0 6.64028 11" height="12" width="7">
  <defs>
    <style>
      .cls-1 {
        fill: none;
        stroke: #fff;
        stroke-miterlimit: 10;
      }

      .cls-2 {
        fill: #0afffb;
      }
    </style>
  </defs>
  <circle class="cls-1" cx="3.32014" cy="3.32014" r="2.82014"/>
  <path class="cls-1" d="M2.8755,7.19348v3.0579l.42973.64441a.23429.23429,0,0,0,.38973,0l.42954-.64441V7.19348a3.2951,3.2951,0,0,1-1.249,0Z" transform="translate(-0.17986 -0.5)"/>
  <path class="cls-2" d="M2.8755,7.19348v3.0579l.42973.64441a.23429.23429,0,0,0,.38973,0l.42954-.64441V7.19348a3.2951,3.2951,0,0,1-1.249,0ZM3.5,1.00821A2.81025,2.81025,0,1,0,6.31025,3.81846,2.81022,2.81022,0,0,0,3.5,1.00821Zm0,1.48319A1.32845,1.32845,0,0,0,2.17294,3.81846a.23419.23419,0,0,1-.46837,0A1.79757,1.79757,0,0,1,3.5,2.023a.23419.23419,0,0,1,0,.46838Z" transform="translate(-0.17986 -0.5)"/>
</svg>
