<svg id="Layer_3" data-name="Layer 3" xmlns="http://www.w3.org/2000/svg" viewBox="0 0 57.75 49.761" width="1.25rem" height="1.25rem">
  <path id="G_Group" data-name="G Group" d="M29.134,7.708h0A13.006,13.006,0,1,0,5.371,18.289h0A13.007,13.007,0,0,0,24.25,23.956h0V37.75a6,6,0,0,1-12,0v-.5A11.513,11.513,0,0,0,.75,25.75H0v6H.75a5.5,5.5,0,0,1,5.5,5.5h0v.5a12,12,0,0,0,12,12h0a12,12,0,0,0,12-12v-.5h0V13a12.937,12.937,0,0,0-1.121-5.289l0,0ZM23.65,10.15h0a7,7,0,1,1-12.795,5.7h0a7,7,0,1,1,12.795-5.7h0" transform="translate(0 0.011)"/>
  <path id="O_Group" data-name="O Group" d="M56.634,7.708h0A13.006,13.006,0,1,0,32.871,18.289h0A13.007,13.007,0,0,0,51.75,23.956h0A12.991,12.991,0,0,0,57.75,13h0a12.949,12.949,0,0,0-1.116-5.292ZM51.15,10.15h0a7,7,0,0,1-12.8,5.7h0a7,7,0,0,1,12.8-5.7h0" transform="translate(0 0.011)"/>
</svg>
