<svg id="Layer_1" data-name="Layer 1" xmlns="http://www.w3.org/2000/svg" viewBox="0 0 24 24">
  <defs>
    <style>
      .cls-1 {
        fill: none;
      }
    </style>
  </defs>
  <path class="cls-1" d="M0,0H24V24H0Z"/>
  <path d="M19,3H5A2.006,2.006,0,0,0,3,5V19a2.006,2.006,0,0,0,2,2H19a2.006,2.006,0,0,0,2-2V5A2.006,2.006,0,0,0,19,3ZM5.523,16.977V7.023H8.6a3.548,3.548,0,0,1,2.368.694,2.529,2.529,0,0,1,.811,2.034,2.447,2.447,0,0,1-.335,1.306,1.975,1.975,0,0,1-.916.8,1.742,1.742,0,0,1,1.032.769,2.642,2.642,0,0,1,.362,1.426,2.837,2.837,0,0,1-.8,2.187,3.276,3.276,0,0,1-2.307.739Zm2.01-5.79H8.579A1.064,1.064,0,0,0,9.761,9.963a1.412,1.412,0,0,0-.273-.971A1.166,1.166,0,0,0,8.6,8.7H7.533Zm0,1.462v2.66H8.818a1.013,1.013,0,0,0,.82-.335,1.442,1.442,0,0,0,.28-.951q0-1.339-.97-1.374Zm7.855,2.66h3.527v1.668H13.378V7.023h2.01Z"/>
</svg>
