<svg id="Layer_3" data-name="Layer 3" xmlns="http://www.w3.org/2000/svg" viewBox="0 0 100.523 49.75">
  <defs>
    <style>
      .cls-1 {
        fill: #006837;
      }

      .cls-2 {
        fill: #39b54a;
      }

      .cls-3 {
        fill: #0f529d;
      }
    </style>
  </defs>
  <g id="G_Group">
    <path id="G_Bottom" class="cls-1" d="M73.5,37.5h0V38a12,12,0,0,1-12,12h0a12,12,0,0,1-12-12v-.5h0A5.5,5.5,0,0,0,44,32h-.75V26H44A11.513,11.513,0,0,1,55.5,37.5V38a6,6,0,0,0,12,0v-.5Z" transform="translate(-0.477 -0.25)"/>
    <path id="G_Middle" class="cls-2" d="M72.379,7.961A12.948,12.948,0,0,1,73.5,13.25V37.5h-6V24.206h0a13.006,13.006,0,0,1-18.879-5.667h0A3,3,0,0,1,54.105,16.1h0A7,7,0,0,0,66.9,10.4h0a3,3,0,0,0,5.484-2.442Z" transform="translate(-0.477 -0.25)"/>
    <path id="G_Top" class="cls-1" d="M66.9,10.4h0a3,3,0,0,0,5.484-2.442h0A13,13,0,0,0,48.621,18.539h0A3,3,0,0,1,54.105,16.1h0A7,7,0,0,1,66.9,10.4Z" transform="translate(-0.477 -0.25)"/>
  </g>
  <g id="O_Group">
    <path id="O_Bottom" class="cls-1" d="M94.4,10.4h0a3,3,0,0,0,5.484-2.442h0A13,13,0,0,0,76.121,18.539h0A3,3,0,0,1,81.605,16.1h0A7,7,0,0,1,94.4,10.4Z" transform="translate(-0.477 -0.25)"/>
    <path id="O_Top" class="cls-2" d="M101,13.25a12.99,12.99,0,0,1-6,10.956h0a13.006,13.006,0,0,1-18.879-5.667h0A3,3,0,0,1,81.605,16.1h0A7,7,0,0,0,94.4,10.4h0a3,3,0,0,0,5.484-2.442h0A12.948,12.948,0,0,1,101,13.25v0Z" transform="translate(-0.477 -0.25)"/>
  </g>
  <g id="Test_Sub">
    <path class="cls-3" d="M.58,36.392a1.024,1.024,0,0,0,.771.349.69.69,0,0,0,.75-.672c0-.926-1.574-.512-1.574-1.561a.825.825,0,0,1,.906-.8.942.942,0,0,1,.766.345l-.114.1a.8.8,0,0,0-.656-.307A.685.685,0,0,0,.68,34.5c0,.938,1.578.52,1.578,1.556a.831.831,0,0,1-.907.827A1.092,1.092,0,0,1,.477,36.5Z" transform="translate(-0.477 -0.25)"/>
    <path class="cls-3" d="M4.19,35.757H3.96c-.43,0-.982.064-.982.525a.466.466,0,0,0,.52.452c.5,0,.692-.431.692-.862Zm.037,1.049a3.677,3.677,0,0,1-.028-.422H4.186a.729.729,0,0,1-.713.477.585.585,0,0,1-.642-.575c0-.567.613-.653,1.087-.653H4.19v-.128a.529.529,0,0,0-.581-.6.839.839,0,0,0-.577.234l-.083-.11a1,1,0,0,1,.669-.256.651.651,0,0,1,.717.72v.866a2.735,2.735,0,0,0,.033.443Z" transform="translate(-0.477 -0.25)"/>
    <path class="cls-3" d="M5.228,36.806V34.963h-.4v-.127h.4v-.657c0-.473.251-.647.544-.647a.73.73,0,0,1,.2.025l-.024.132a.6.6,0,0,0-.178-.025c-.3,0-.391.256-.391.524v.648h.494v.127H5.377v1.843Z" transform="translate(-0.477 -0.25)"/>
    <path class="cls-3" d="M7.87,35.7a.74.74,0,0,0-.746-.794.809.809,0,0,0-.766.794Zm.074.767a.936.936,0,0,1-.783.392A.973.973,0,0,1,6.2,35.8a.956.956,0,0,1,.923-1.028.888.888,0,0,1,.9.959c0,.031-.005.064-.005.095H6.354a.82.82,0,0,0,1.488.55Z" transform="translate(-0.477 -0.25)"/>
    <path class="cls-3" d="M8.735,36.682a.14.14,0,0,1,.132-.144.147.147,0,0,1,0,.293.139.139,0,0,1-.132-.149" transform="translate(-0.477 -0.25)"/>
    <polygon class="cls-3" points="10.475 36.556 10.475 33.537 12.169 33.537 12.169 33.682 10.632 33.682 10.632 34.923 12.061 34.923 12.061 35.063 10.632 35.063 10.632 36.556 10.475 36.556"/>
    <path class="cls-3" d="M14.274,35.757h-.231c-.429,0-.982.064-.982.525a.466.466,0,0,0,.52.452c.5,0,.693-.431.693-.862Zm.036,1.049a3.677,3.677,0,0,1-.028-.422h-.013a.728.728,0,0,1-.713.477.585.585,0,0,1-.642-.575c0-.567.614-.653,1.087-.653h.273v-.128a.529.529,0,0,0-.582-.6.835.835,0,0,0-.576.234l-.083-.11a.992.992,0,0,1,.668-.256.651.651,0,0,1,.717.72v.866a2.735,2.735,0,0,0,.033.443Z" transform="translate(-0.477 -0.25)"/>
    <path class="cls-3" d="M15.135,36.422a.679.679,0,0,0,.576.3.458.458,0,0,0,.5-.435c0-.315-.31-.388-.6-.465-.321-.085-.514-.226-.514-.52a.553.553,0,0,1,.613-.528.675.675,0,0,1,.6.306l-.111.086a.55.55,0,0,0-.5-.26.413.413,0,0,0-.461.4c0,.235.152.328.511.418s.606.217.606.555a.589.589,0,0,1-.652.579.814.814,0,0,1-.7-.346Z" transform="translate(-0.477 -0.25)"/>
    <path class="cls-3" d="M17.784,36.8a.724.724,0,0,1-.263.052.423.423,0,0,1-.446-.478V34.963h-.408v-.126h.4V34.26h.153v.577h.552v.126h-.552v1.383c0,.272.136.367.329.367a.531.531,0,0,0,.219-.048Z" transform="translate(-0.477 -0.25)"/>
    <path class="cls-3" d="M18.344,36.682a.14.14,0,0,1,.133-.144.147.147,0,0,1,0,.293.139.139,0,0,1-.133-.149" transform="translate(-0.477 -0.25)"/>
    <path class="cls-3" d="M21.472,33.932l-.77,1.889h1.524Zm1.15,2.874-.338-.844h-1.64l-.342.844h-.169l1.261-3.019h.168l1.229,3.019Z" transform="translate(-0.477 -0.25)"/>
    <path class="cls-3" d="M24.427,36.806V34.963h-.9v1.843h-.149V34.963h-.4v-.127h.4v-.657c0-.473.252-.647.544-.647a.725.725,0,0,1,.2.025l-.024.132a.6.6,0,0,0-.178-.025c-.3,0-.391.256-.391.524v.648h.9v-.657c0-.473.251-.647.548-.647a.755.755,0,0,1,.2.025l-.029.132a.582.582,0,0,0-.177-.025c-.3,0-.392.256-.392.524v.648h.5v.127h-.5v1.843Z" transform="translate(-0.477 -0.25)"/>
    <path class="cls-3" d="M27.254,35.817a.849.849,0,1,0-.85.913.847.847,0,0,0,.85-.913m-1.851,0a1,1,0,1,1,1,1.045.984.984,0,0,1-1-1.045" transform="translate(-0.477 -0.25)"/>
    <path class="cls-3" d="M28.1,36.806V35.313c0-.119,0-.362-.016-.477h.144c.008.106.017.333.017.461h.008a.669.669,0,0,1,.642-.52.51.51,0,0,1,.112.008L29,34.926a.589.589,0,0,0-.1-.009c-.42,0-.642.409-.642.916v.973Z" transform="translate(-0.477 -0.25)"/>
    <path class="cls-3" d="M31.048,35.821a.856.856,0,0,0-.819-.912.915.915,0,0,0,0,1.82.855.855,0,0,0,.819-.908m0,.985v-.47h-.008a.9.9,0,0,1-.815.525,1.045,1.045,0,0,1,0-2.084.893.893,0,0,1,.815.532h.008V33.582h.149v3.224Z" transform="translate(-0.477 -0.25)"/>
    <path class="cls-3" d="M33.253,35.757h-.231c-.429,0-.981.064-.981.525a.466.466,0,0,0,.519.452c.5,0,.693-.431.693-.862Zm.037,1.049a3.464,3.464,0,0,1-.029-.422h-.012a.729.729,0,0,1-.713.477.585.585,0,0,1-.643-.575c0-.567.614-.653,1.087-.653h.273v-.128a.529.529,0,0,0-.581-.6.837.837,0,0,0-.577.234l-.083-.11a.992.992,0,0,1,.668-.256.651.651,0,0,1,.717.72v.866a2.853,2.853,0,0,0,.033.443Z" transform="translate(-0.477 -0.25)"/>
    <path class="cls-3" d="M36,35.821a.843.843,0,0,0-.82-.912.915.915,0,0,0,0,1.82.838.838,0,0,0,.82-.908m-1.784.985V33.582h.149v1.727h.012a.892.892,0,0,1,.815-.532,1.045,1.045,0,0,1,0,2.084.879.879,0,0,1-.815-.525h-.012v.47Z" transform="translate(-0.477 -0.25)"/>
    <rect class="cls-3" x="36.361" y="33.333" width="0.149" height="3.223"/>
    <path class="cls-3" d="M39.344,35.7a.741.741,0,0,0-.746-.794.81.81,0,0,0-.767.794Zm.073.767a.935.935,0,0,1-.783.392.973.973,0,0,1-.96-1.057.956.956,0,0,1,.924-1.028.887.887,0,0,1,.893.959c0,.031,0,.064,0,.095h-1.66a.82.82,0,0,0,1.488.55Z" transform="translate(-0.477 -0.25)"/>
    <path class="cls-3" d="M40.208,36.682a.14.14,0,0,1,.133-.144.147.147,0,0,1,0,.293.139.139,0,0,1-.133-.149" transform="translate(-0.477 -0.25)"/>
  </g>
  <g id="Text_Newark">
    <path class="cls-3" d="M.6,32V26h1c1.334,1.876,3.245,4.344,3.579,4.96h.016c-.058-.777-.05-1.732-.05-2.7V26h.785v6H4.982c-.883-1.2-3.2-4.437-3.628-5.138H1.338c.04.777.04,1.623.04,2.687V32Z" transform="translate(-0.477 -0.25)"/>
    <polygon class="cls-3" points="11.58 28.953 8.026 28.953 8.026 31.032 11.947 31.032 11.83 31.75 7.183 31.75 7.183 25.751 11.763 25.751 11.763 26.46 8.026 26.46 8.026 28.234 11.58 28.234 11.58 28.953"/>
    <path class="cls-3" d="M14.893,32l-1.844-6h.884c.443,1.471,1.335,4.385,1.46,5.18H15.4c.166-.845,1.1-3.727,1.568-5.18h.843c.417,1.343,1.393,4.5,1.518,5.163h.017c.183-.9,1.109-3.761,1.551-5.163h.852l-1.97,6h-.917c-.425-1.361-1.369-4.386-1.519-5.1h-.008c-.15.76-1.059,3.566-1.552,5.1Z" transform="translate(-0.477 -0.25)"/>
    <path class="cls-3" d="M25.746,29.456c-.726-1.656-1.068-2.441-1.2-2.847h-.009c-.125.388-.526,1.42-1.126,2.847Zm-2.595.727L22.384,32h-.868l2.544-6h1.018l2.653,6h-.918l-.792-1.817Z" transform="translate(-0.477 -0.25)"/>
    <path class="cls-3" d="M29.516,28.721H31.3c.926,0,1.385-.329,1.385-1.048,0-.651-.459-.98-1.351-.98H29.516Zm0,.693V32h-.825V26h2.827c1.21,0,2.027.557,2.027,1.622a1.368,1.368,0,0,1-1.085,1.437c.393.11.927.406.927,1.462v.262A6.247,6.247,0,0,0,33.454,32H32.6a4.622,4.622,0,0,1-.075-1.225V30.58c0-.887-.342-1.166-1.386-1.166Z" transform="translate(-0.477 -0.25)"/>
    <path class="cls-3" d="M35.005,26h.843v2.958c.9-.786,2.36-1.995,3.478-2.958H40.41L37.4,28.569,40.6,32H39.5l-2.736-2.973-.917.751V32h-.843Z" transform="translate(-0.477 -0.25)"/>
  </g>
</svg>
