<svg id="Layer_1" data-name="Layer 1" xmlns="http://www.w3.org/2000/svg" viewBox="0 0 18 18" width="26px" height="26px">
  <defs>
    <style>
      .cls-1 {
        fill: #0d47a1;
      }
    </style>
  </defs>
  <path class="cls-1" d="M9,1.5A5.25,5.25,0,0,0,3.75,6.75C3.75,10.69,9,16.5,9,16.5s5.25-5.81,5.25-9.75A5.25,5.25,0,0,0,9,1.5Zm2.27,8.11a4.13,4.13,0,0,1-1.74.32A3.09,3.09,0,0,1,6.27,6.59,3.29,3.29,0,0,1,9.72,3.12a3.43,3.43,0,0,1,1.56.3l-.2.69a3.12,3.12,0,0,0-1.34-.27A2.45,2.45,0,0,0,7.17,6.56,2.4,2.4,0,0,0,9.71,9.21a3.58,3.58,0,0,0,1.39-.27Z"/>
</svg>
