<svg xmlns="http://www.w3.org/2000/svg" viewBox="0 0 557.66 609.55">
    <defs>
        <style>
            #North .cls-1,
            #South .cls-1,
            #Central .cls-1,
            #East .cls-1,
            #West .cls-1 {
                fill: #0d47a1;
                stroke: black;
            }
            #North:hover .cls-1,
            #South:hover .cls-1,
            #Central:hover .cls-1,
            #East:hover .cls-1,
            #West:hover .cls-1 {
                fill: yellow;
                stroke: black;
                cursor: pointer;
            }
            #North:active .cls-1,
            #South:active .cls-1,
            #Central:active .cls-1,
            #East:active .cls-1,
            #West:active .cls-1 {
                fill: lightsalmon;
                stroke: black;
                cursor: pointer;
            }
            #North .cls-2,
            #South .cls-2,
            #Central .cls-2,
            #East .cls-2,
            #West .cls-2 {
                fill: white;
                stroke: black;
            }
            #North:hover .cls-2,
            #South:hover .cls-2,
            #Central:hover .cls-2,
            #East:hover .cls-2,
            #West:hover .cls-2 {
                fill: orange;
                stroke: black;
                cursor: pointer;
            }
            #North:active .cls-2,
            #South:active .cls-2,
            #Central:active .cls-2,
            #East:active .cls-2,
            #West:active .cls-2 {
                fill: red;
                stroke: black;
                cursor: pointer;
            }
            .cls-1, .cls-3 {
                stroke-linecap: round;
            }
            .cls-1, .cls-2, .cls-3 {
                stroke-linejoin: round;
                stroke-width: 2px;
            }
            .cls-3 {
                fill: none;
                stroke: black;
            }
        </style>
    </defs>
<g id="North" data-name="North" >
    <polygon class="cls-1" points="238.63 133.35 248.1 109.21 249.54 105.55 250.88 107.51 253.14 100.3 253.45 99.33 253.71 98.5 256.8 88.26 256.95 87.79 257.11 87.33 259.32 80.12 259.42 79.66 259.58 79.2 261.18 74 261.38 74.1 261.54 74.2 261.64 74.41 261.69 74.56 261.74 74.46 263.65 73.43 264.01 74.1 266.79 72.81 267.76 71.63 270.54 72.71 272.35 68.23 274.1 68.9 275.85 64.47 277.6 65.19 277.8 64.63 278.88 61.9 280.22 62.47 281.05 62.77 282.38 63.29 283.77 59.74 286.3 56.34 287.43 57.27 288 57.73 288.82 58.4 288.3 59.38 289.38 59.79 290.47 60.15 292.17 60.82 292.68 59.43 293.09 58.35 293.66 57.01 295.67 57.78 296.49 58.14 297.83 58.66 300.76 51.24 301.17 50.16 302.67 46.35 301.33 45.84 300.61 45.58 299.27 45.01 301.33 39.81 299.78 38.79 299.22 38.27 298.08 37.4 299.73 35.18 298.39 33.84 302.82 28.03 301.28 26.84 308.69 17.83 308.43 17.63 310.49 14.95 310.75 12.84 311.47 11.35 311.98 10.68 312.29 9.96 312.55 8.98 312.65 8.31 313.01 7.95 314.45 7.23 317.29 5.99 318.37 5.22 320.32 3.06 321.87 1.51 322.23 1.21 322.59 1 322.69 1.1 323 1.51 323.88 2.75 324.44 3.42 324.96 4.19 325.57 5.01 326.19 5.74 326.86 6.46 327.32 6.87 327.58 7.07 327.74 7.23 328.15 7.49 328.61 7.79 328.87 7.85 329.07 7.95 329.44 7.95 330.26 8.05 330.72 8.1 331.55 8.16 332.27 8.21 332.83 8.26 333.3 8.36 334.27 8.52 335.05 8.67 335.67 8.82 337.31 9.19 338.24 9.34 338.91 9.39 339.68 9.44 340.3 9.44 341.28 9.44 341.94 9.39 342.51 9.29 342.98 9.24 343.44 9.19 343.9 9.19 344.11 9.19 344.73 9.19 344.98 9.24 345.29 9.24 345.81 9.34 346.17 9.49 346.48 9.65 346.94 9.85 347.45 10.16 347.87 10.42 348.07 10.57 348.33 10.94 348.64 11.3 349.1 12.17 349.36 12.74 349.46 12.94 349.72 13.36 349.87 13.66 350.18 13.97 350.34 14.13 350.59 14.28 351.62 14.95 352.09 15.26 353.27 15.98 353.48 16.14 353.99 16.5 354.45 16.8 356.1 17.63 356.77 17.99 357.75 18.4 358.52 18.81 359.14 19.12 359.7 19.43 360.17 19.74 360.99 20.25 361.56 20.61 362.23 21.13 362.59 21.49 362.95 21.9 363.15 22.05 363.57 22.36 363.82 22.47 364.6 22.83 365.06 23.03 365.21 23.14 365.42 23.24 365.68 23.45 365.99 23.7 366.35 24.11 366.81 24.53 367.32 24.94 367.84 25.35 368.1 25.55 368.51 25.81 369.13 26.23 369.59 26.53 370.72 27.15 371.24 27.41 371.75 27.72 372.37 28.03 373.3 28.49 373.71 28.75 374.38 29.11 374.99 29.47 375.61 29.78 376.28 30.14 377.26 30.65 378.5 31.27 379.63 31.78 380.45 32.15 382.61 33.12 383.49 33.59 384.26 33.95 384.88 34.31 386.73 35.28 387.4 35.65 387.76 35.85 391.31 37.7 392.29 38.22 392.45 38.32 392.7 38.58 393.01 38.89 393.22 39.04 394.14 39.45 394.71 39.71 395.28 39.92 395.69 40.07 396.56 40.48 397.08 40.69 398.01 41.15 398.52 41.36 398.73 41.46 398.93 41.56 399.19 41.77 399.76 42.18 400.01 42.29 400.48 42.44 400.89 42.54 401.45 42.65 402.07 42.8 403.1 43.11 403.51 43.16 403.93 43.21 404.18 43.21 404.34 43.21 404.54 43.16 404.6 43.16 404.9 43.11 405.01 43.06 405.11 43.06 405.37 43.06 406.81 43.26 407.53 43.42 409.07 43.83 409.49 44.04 412.68 45.12 414.69 45.94 416.64 46.71 416.49 49.08 416.18 50.57 415.97 51.3 415.4 52.38 413.81 55.31 412.57 57.22 410.1 60.72 406.5 65.14 405.26 66.79 402.79 69.52 399.65 73.02 396.36 76.62 395.17 78.32 394.25 79.87 393.58 81.1 390.59 86.87 389.1 90.06 387.86 93.35 386.58 96.55 383.8 106.27 382.92 109.21 382.46 110.6 381.79 112.4 381.17 113.69 379.73 116.42 377.88 119.61 375.56 123.16 372.99 126.81 370.26 130.62 363.21 140.25 362.02 142.26 360.84 144.32 359.45 146.89 358.57 148.75 357.75 150.6 356.77 153.17 354.87 158.53 354.4 159.97 353.94 161.87 353.58 163.93 352.96 168.51 352.5 172.06 349.67 171.6 345.39 170.88 337.93 169.59 334.17 168.98 336.49 157.86 339.89 149.26 335.3 147.72 336.13 145.35 336.85 144.01 336.13 143.65 332.88 142.41 328.82 140.82 325.68 148.75 324.03 152.97 322.13 157.86 320.68 161.46 319.09 165.42 312.24 162.75 310.18 161.92 309.2 160.07 308.9 160.89 304.21 172.84 300.56 171.45 295.82 183.54 292.17 182.15 288.66 180.76 293.4 168.62 289.9 167.22 286.4 165.73 286.19 165.63 285.73 165.06 285.27 164.24 284.49 163.47 281.15 162.13 280.63 161.97 279.09 161.61 277.65 161.46 277.55 161.46 276.41 161.36 274.82 161.1 273.27 160.64 272.24 160.22 270.8 159.66 269.1 158.99 269.2 158.27 269.62 156.88 270.18 155.18 270.8 153.43 271.52 151.63 272.24 149.88 273.07 148.18 273.27 147.72 273.94 146.43 274.71 145.14 275.43 143.91 276.26 142.72 277.13 141.54 278.06 140.41 279.04 139.32 280.02 138.24 281.56 136.29 278.11 134.95 274.61 133.56 271.06 132.17 267.56 130.78 262.87 128.98 259.27 127.53 256.49 126.45 254.43 131.6 251.75 138.5 247.48 136.8 243.93 135.41 240.43 134.02 238.63 133.35"/>
    <path class="cls-2" d="M367.72,125.05H351.8l-28.86-44a63.71,63.71,0,0,1-3.51-5.81h-.2c.26,2.48.39,6.25.39,11.33v38.48H304.73V55h17l27.79,42.62q1.9,2.88,3.51,5.72h.2a75.08,75.08,0,0,1-.39-9.62V55h14.89Z" transform="translate(0.49 0.49)"/>
</g>
<g id="South" data-name="South" >
    <polygon class="cls-1" points="92.84 425.29 101.28 414.22 97.06 410.93 100.41 406.09 100.87 405.16 111.06 390.33 111.58 389.2 112.76 387.81 114.25 389.1 118.01 383.95 118.78 383.44 120.53 381.07 120.95 380.5 124.5 375.56 124.96 374.99 126.3 372.37 126.97 371.85 132.17 364.6 131.86 364.39 132.99 362.85 131.96 362.18 133.66 358.99 134.23 359.29 135 358.06 136.08 357.39 137.63 354.92 138.04 354.3 138.81 353.06 137.01 351.93 137.78 350.7 138.14 350.08 138.81 349.1 139.32 348.07 137.68 347.25 138.91 344.88 139.22 344.36 139.74 342.61 140.1 341.12 140.41 340.3 141.07 337.47 141.49 336.49 141.85 334.94 141.38 334.79 142.62 332.52 143.49 329.59 144.21 328.41 143.29 327.84 146.27 323.26 144.73 322.23 145.35 321.35 145.04 321.15 145.86 319.86 146.07 319.86 146.48 318.47 147.05 317.39 147.3 316.41 147.97 316.21 147.51 314.82 148.38 313.32 148.44 313.22 147.97 311.78 148.38 311.88 148.64 311.57 148.59 311.57 150.85 303.7 150.91 303.7 152.09 299.63 152.35 298.7 154.61 290.88 154.77 290.36 182.1 298.24 189.41 300.35 195.59 302.1 196.67 302.41 206.4 305.09 205.94 306.89 216.95 328.1 215.2 327.58 212.47 329.38 211.86 331.39 210.52 335.56 214.48 336.64 216.9 337.31 218.4 337.72 222.31 338.81 226.27 339.89 230.18 341.02 234.15 342.1 238.63 343.33 242.95 343.95 246.09 344.36 258.09 346.06 260.5 346.37 261.38 346.12 264.62 344.98 268.28 343.33 269.67 342.72 272.04 341.33 274.25 345.34 276.21 348.95 276.31 349.1 273.58 355.12 272.04 358.57 270.49 362.02 276.82 364.85 282.8 367.53 279.66 374.48 279.91 374.58 278.52 377.77 275.28 384.93 276.31 385.39 275.23 387.14 274.2 388.84 273.22 390.59 272.24 392.39 271.37 394.2 270.6 395.89 267.1 403.67 262.98 412.68 277.03 418.7 270.9 432.81 297.88 452.93 283.62 479.39 336.85 518.16 341.94 517.9 342.72 517.75 343.75 517.85 344.83 518.26 345.7 519.03 346.27 520.16 346.42 521.09 346.27 522.17 345.24 522.17 340.45 523.2 336.85 526.19 334.94 529.48 333.86 530.36 331.39 530.72 223.9 539.52 206.61 540.91 203.41 541.17 198.88 538.13 193.69 534.58 193.07 534.17 190.34 532.26 188.33 530.87 187.3 530.2 172.17 519.8 156.78 465.7 151.32 460.55 150.7 459.94 142.72 452.42 134.95 445.11 134.28 444.49 129.96 440.42 129.44 439.91 126.71 437.49 124.55 435.43 124.03 434.92 121.87 432.91 121.31 432.39 120.53 431.62 118.63 431.21 117.91 431 114.87 430.33 114.15 430.13 110.5 429.31 109.67 429.15 105.04 428.07 102.72 427.55 101.08 427.19 100.3 426.99 97.21 426.32 96.44 426.11 92.84 425.29"/>
    <path class="cls-2" d="M178.94,439.58V424a30,30,0,0,0,9.23,5.34,29.6,29.6,0,0,0,10.06,1.78,22.25,22.25,0,0,0,5.2-.53,12.44,12.44,0,0,0,3.71-1.49,6.52,6.52,0,0,0,2.22-2.25,5.58,5.58,0,0,0,.73-2.81,6.1,6.1,0,0,0-1.17-3.66,12.85,12.85,0,0,0-3.2-3,32.68,32.68,0,0,0-4.81-2.63c-1.85-.85-3.86-1.71-6-2.59q-8.21-3.42-12.24-8.35a18.26,18.26,0,0,1-4-11.91,19,19,0,0,1,2.19-9.4,18.65,18.65,0,0,1,6-6.47,26.68,26.68,0,0,1,8.76-3.74,44.94,44.94,0,0,1,10.55-1.19,63.51,63.51,0,0,1,9.69.65,38.43,38.43,0,0,1,7.79,2v14.6a23.67,23.67,0,0,0-3.84-2.15,30.16,30.16,0,0,0-4.27-1.54,34.26,34.26,0,0,0-4.37-.9,31.77,31.77,0,0,0-4.12-.29,21.66,21.66,0,0,0-4.89.51,12.49,12.49,0,0,0-3.71,1.44,7.15,7.15,0,0,0-2.34,2.22,5.23,5.23,0,0,0-.83,2.91,5.55,5.55,0,0,0,.93,3.15,10.56,10.56,0,0,0,2.63,2.63,28.1,28.1,0,0,0,4.15,2.45c1.63.79,3.47,1.62,5.52,2.46A60.89,60.89,0,0,1,216,405a26.43,26.43,0,0,1,5.74,4.46,17.24,17.24,0,0,1,3.66,5.69,22.73,22.73,0,0,1-.95,17.29,18,18,0,0,1-6,6.44,25.89,25.89,0,0,1-8.86,3.54,51,51,0,0,1-10.67,1.08,59.42,59.42,0,0,1-11-1A33.11,33.11,0,0,1,178.94,439.58Z" transform="translate(0.49 0.49)"/>
</g>
<g id="Central" data-name="Central" >
    <polygon class="cls-1" points="182.1 298.24 193.27 259.48 200.53 261.59 207.84 263.7 211.5 264.73 215.1 265.76 218.76 266.84 222.46 267.92 226.43 269 233.89 271.21 236.26 262.98 243.83 243.72 246.3 237.55 249.9 228.38 246.91 225.81 246.4 225.4 243.93 222.87 246.19 217.62 246.45 217.73 249.54 211.6 253.09 204.55 246.81 201.41 249.75 195.69 252.53 189.82 255.87 191.68 259.22 193.53 262.56 195.38 264.11 196.26 265.81 197.34 266.01 196.98 266.17 196.62 262.87 194.56 261.48 193.63 259.68 192.3 256.64 189.67 253.66 186.94 250.62 184.26 247.53 181.49 248.51 178.91 244.29 177.26 247.89 164.75 234.51 159.5 239.3 147.3 252.22 152.35 268.28 158.68 269.1 158.99 270.8 159.66 272.24 160.22 273.27 160.64 274.82 161.1 276.41 161.36 277.55 161.46 277.65 161.46 279.09 161.61 280.63 161.97 281.15 162.13 284.49 163.47 285.27 164.24 285.73 165.06 286.19 165.63 286.4 165.73 289.9 167.22 293.4 168.62 288.66 180.76 292.17 182.15 295.82 183.54 300.56 171.45 304.21 172.84 308.9 160.89 309.2 160.07 310.18 161.92 312.24 162.75 319.09 165.42 320.68 161.46 322.13 157.86 324.03 152.97 325.68 148.75 328.82 140.82 332.88 142.41 336.13 143.65 336.85 144.01 336.13 145.35 335.3 147.72 339.89 149.26 336.49 157.86 334.17 168.98 337.93 169.59 345.39 170.88 349.67 171.6 352.5 172.06 351.62 178.91 351.26 181.23 351.21 181.64 350.44 187.3 349.25 196.21 348.33 204.19 347.35 209.9 347.14 211.24 346.78 213.66 346.68 214.48 346.53 215.82 346.48 217.16 346.48 218.55 346.42 218.7 346.42 218.91 346.42 219.63 346.42 220.2 346.42 223.8 346.53 226.17 346.89 228.9 347.04 229.88 347.5 232.6 347.66 233.53 349.05 237.85 351.26 244.8 353.53 251.39 357.6 264.37 359.14 268.79 360.74 272.45 362.95 276.57 364.24 278.73 361.82 280.43 361.76 280.48 359.14 282.44 357.7 283.62 357.23 283.11 356.51 282.85 354.09 281.87 346.78 278.88 337.57 275.02 336.13 277.8 334.84 280.32 329.07 277.85 328.41 279.91 327.32 283.11 321.51 280.84 319.91 284.49 319.45 285.52 316.51 292.27 314.15 297.67 312.09 302.36 323.88 307.3 325.78 302.67 331.13 304.67 335.25 306.22 335.77 306.68 337.16 307.76 324.19 324.44 312.19 339.42 311.42 339.06 311.11 338.91 304.98 335.72 307.66 329.23 301.43 326.5 302.62 324.03 297.47 326.14 293.81 327.63 288.3 331.39 286.86 332.32 282.74 334.89 280.22 336.54 278.01 337.93 274.82 339.78 273.01 340.81 272.04 341.33 269.67 342.72 268.28 343.33 264.62 344.98 261.38 346.12 260.5 346.37 258.09 346.06 246.09 344.36 242.95 343.95 238.63 343.33 234.15 342.1 230.18 341.02 226.27 339.89 222.31 338.81 218.4 337.72 216.9 337.31 214.48 336.64 210.52 335.56 211.86 331.39 212.47 329.38 215.2 327.58 216.95 328.1 205.94 306.89 206.4 305.09 196.67 302.41 195.59 302.1 189.41 300.35 182.1 298.24"/>
        <path class="cls-2" d="M315.54,273q-7.67,3.71-20,3.71-16.11,0-25.34-9.48T261,242q0-16.8,10.38-27.25t26.93-10.45a50.45,50.45,0,0,1,17.28,2.59V222a30.58,30.58,0,0,0-16-4.2q-9.87,0-15.92,6.2t-6.05,16.8q0,10.15,5.71,16.18t15.38,6a32.74,32.74,0,0,0,16.89-4.49Z" transform="translate(0.49 0.49)"/>
</g>
<g id="East" data-name="East" >
    <polygon class="cls-1" points="262.98 412.68 267.1 403.67 270.6 395.89 271.37 394.2 272.24 392.39 273.22 390.59 274.2 388.84 275.23 387.14 276.31 385.39 275.28 384.93 278.52 377.77 279.91 374.58 279.66 374.48 282.8 367.53 276.82 364.85 270.49 362.02 272.04 358.57 273.58 355.12 276.31 349.1 276.21 348.95 274.25 345.34 272.04 341.33 273.01 340.81 274.82 339.78 278.01 337.93 280.22 336.54 282.74 334.89 286.86 332.32 288.3 331.39 293.81 327.63 297.47 326.14 302.62 324.03 301.43 326.5 307.66 329.23 304.98 335.72 311.11 338.91 311.42 339.06 312.19 339.42 324.19 324.44 337.16 307.76 335.77 306.68 335.25 306.22 331.13 304.67 325.78 302.67 323.88 307.3 312.09 302.36 314.15 297.67 316.51 292.27 319.45 285.52 319.91 284.49 321.51 280.84 327.32 283.11 328.41 279.91 329.07 277.85 334.84 280.32 336.13 277.8 337.57 275.02 346.78 278.88 354.09 281.87 356.51 282.85 357.23 283.11 357.7 283.62 359.14 282.44 361.76 280.48 361.82 280.43 364.24 278.73 365.42 280.58 367.58 283.11 369.69 284.86 372.11 286.4 376.69 289.08 378.24 289.69 379.32 290.11 381.27 290.47 382.56 290.62 388.79 290.67 397.59 290.88 404.13 290.67 409.38 290.36 413.71 290.05 416.74 289.49 420.09 288.61 421.48 288.05 423.13 287.12 425.55 285.42 427.55 283.52 430.44 280.27 433.37 276 436.1 270.65 438.47 266.43 440.73 263.03 443.05 260.14 445.73 257.47 448.56 255.51 452.11 253.35 455.15 252.06 459.16 250.52 462.46 249.54 464 249.13 464.41 248.97 466.06 248.66 467.3 248.41 469.92 248.05 491.7 245.68 498.9 245.01 503.74 244.96 508.43 244.8 511.67 244.65 512.7 244.7 517.08 245.01 519.7 245.37 522.59 246.04 525.62 247.12 529.28 248.82 531.7 250 534.27 251.81 537.21 253.97 538.23 255 539.62 256.8 540.45 258.34 541.01 259.68 542.46 264.21 542.92 266.58 543.13 269.26 543.33 273.53 543.02 279.14 542.51 283.52 542.46 284.29 541.68 290.88 540.76 297.47 538.08 311.16 536.07 321.51 533.81 330.93 529.74 347.2 529.23 350.29 528.87 354.71 528.5 362.85 529.12 369.9 530.25 376.54 533.19 385.24 540.5 401.92 541.17 403.41 543.28 408.1 544.88 411.75 547.19 417.36 548.43 420.4 551.36 428.84 553.78 437.95 555.79 444.54 556.56 449.9 556.66 456.9 556.41 462.51 556.2 463.59 556.15 463.95 555.84 466.01 551.93 476.51 549.97 480.94 548.68 483.98 536.48 509.1 531.8 518.77 527.42 526.6 523.51 532.93 521.86 535.56 514.14 549.97 512.96 552.13 511.98 553.88 500.55 576.84 500.09 577.77 487.37 603.87 485.11 608.55 455.97 591 447.53 585.23 416.07 563.97 410.15 559.13 408.82 557.59 407.53 556.05 404.18 551.46 401.15 548.12 396.31 544.46 393.42 543.69 390.33 543.43 387.76 543.49 384.11 543.79 380.09 544.36 378.13 544 376.59 543.02 375.2 541.84 373.91 540.55 372.73 538.96 371.03 535.97 368.82 530.98 367.22 528.66 364.13 526.14 361.66 524.95 350.9 522.12 346.27 522.17 346.42 521.09 346.27 520.16 345.7 519.03 344.83 518.26 343.75 517.85 342.72 517.75 341.94 517.9 336.85 518.16 283.62 479.39 297.88 452.93 270.9 432.81 277.03 418.7 262.98 412.68"/>
    <path class="cls-2" d="M432.72,439.43h-42v-70h40.38v12.84H406.5v15.58h22.9v12.79H406.5v16h26.22Z" transform="translate(0.49 0.49)"/>
</g>
<g id="West" data-name="West">
    <polygon class="cls-1" points="1 271.78 1.51 271.32 12.89 260.61 13.51 259.99 14.95 258.65 16.19 259.58 23.19 253.4 26.64 255.62 27.36 254.79 31.17 249.13 44.6 255.36 45.22 254.07 45.53 253.4 50.99 245.73 51.35 245.22 51.91 243.26 50.57 242.64 51.24 240.22 51.45 239.55 53.2 233.27 59.63 229.26 59.79 228.69 58.97 228.74 63.34 211.5 63.49 211.09 64.17 211.19 64.99 207.94 65.25 207.22 65.92 204.39 66.58 203.78 73.58 197.75 73.69 197.7 74.46 197.03 101.59 198.99 97.01 210.57 91.76 223.9 93.25 223.96 94.8 224.11 96.34 224.26 97.68 224.47 99.07 224.78 100.46 225.09 101.85 225.5 103.24 225.96 104.27 226.32 109.26 228.23 110.75 228.79 112.3 229.31 113.89 229.72 115.44 230.13 117.03 230.44 118.63 230.75 120.28 230.96 120.84 231.01 120.89 230.44 123.88 221.33 124.14 220.61 124.96 218.03 125.17 217.37 127.12 211.39 128.93 211.24 131.96 211.09 133.87 210.98 136.29 210.83 137.37 210.78 140.61 210.57 141.44 210.52 144.83 210.37 145.66 210.31 149.72 210.11 150.55 210.11 181.02 208.51 181.28 207.94 181.59 207.02 183.39 207.69 192.55 211.09 199.19 201.92 200.12 200.74 200.63 199.35 204.19 200.69 207.33 192.24 207.84 191.42 211.14 182.51 214.48 183.75 215 182.41 218.34 173.45 221.48 166.61 223.29 167.28 227.4 156.78 228.13 154.92 229.88 155.59 233.89 145.45 238.63 133.4 238.63 133.35 240.43 134.02 243.93 135.41 247.48 136.8 251.75 138.5 254.43 131.6 256.49 126.45 259.27 127.53 262.87 128.98 267.56 130.78 271.06 132.17 274.61 133.56 278.11 134.95 281.56 136.29 280.02 138.24 279.04 139.32 278.06 140.41 277.13 141.54 276.26 142.72 275.43 143.91 274.71 145.14 273.94 146.43 273.27 147.72 273.07 148.18 272.24 149.88 271.52 151.63 270.8 153.43 270.18 155.18 269.62 156.88 269.2 158.27 269.1 158.99 268.28 158.68 252.22 152.35 239.3 147.3 234.51 159.5 247.89 164.75 244.29 177.26 248.51 178.91 247.53 181.49 250.62 184.26 253.66 186.94 256.64 189.67 259.68 192.3 261.48 193.63 262.87 194.56 266.17 196.62 266.01 196.98 265.81 197.34 264.11 196.26 262.56 195.38 259.22 193.53 255.87 191.68 252.53 189.82 249.75 195.69 246.81 201.41 253.09 204.55 249.54 211.6 246.45 217.73 246.19 217.62 243.93 222.87 246.4 225.4 246.91 225.81 249.9 228.38 246.3 237.55 243.83 243.72 236.26 262.98 233.89 271.21 226.43 269 222.46 267.92 218.76 266.84 215.1 265.76 211.5 264.73 207.84 263.7 200.53 261.59 193.27 259.48 182.1 298.24 154.77 290.36 154.87 289.95 157.55 280.69 157.65 280.22 159.5 280.79 165.22 260.81 167.79 252.22 170.93 242.54 168.51 241.46 167.84 241.15 166.5 240.58 164.75 244.55 163.42 243.98 162.69 243.78 160.84 243.05 160.07 245.06 159.81 245.78 159.04 247.02 155.95 245.11 155.18 246.35 154.66 247.17 153.89 248.41 152.97 247.84 151.83 249.69 151.42 250.47 150.44 252.01 149.21 251.24 148.49 250.78 146.58 249.59 145.6 251.14 145.09 251.96 143.6 254.48 141.64 253.3 140.92 252.84 139.17 251.75 135.46 257.78 134.9 258.75 132.48 258.03 131.81 257.83 130.42 257.42 129.29 261.07 127.9 260.66 127.23 260.4 125.84 259.94 125.37 261.33 125.17 262.05 124.86 263.08 123.47 262.67 122.75 262.46 121.36 262.05 120.53 264.83 119.09 264.42 118.47 264.01 117.08 263.59 116.11 266.79 114.72 266.37 114 266.17 112.61 265.7 112.09 267.4 111.94 268.38 111.27 269.72 109.98 269.05 109.05 269.2 107.77 268.49 106.22 271.52 103.08 270.13 102.41 269.82 101.13 269.1 100.3 270.49 99.94 271.11 97.88 274.51 95.98 275.9 94.28 276.93 93.1 276.51 91.86 277.03 80.74 285.37 74.15 282.95 73.43 282.69 69.52 281.25 67.77 285.68 64.22 284.29 62.26 289.13 61.33 291.5 59.99 290.98 59.27 290.42 57.88 289.9 56.75 292.78 54.95 292.06 54.23 293.81 53.3 296.23 50.83 295.25 50.42 296.18 49.91 297.16 48.16 301.64 45.94 300.76 44.86 300.92 43.42 300.35 41.51 305.24 40.07 304.67 39.15 304.62 37.7 304.06 36.01 308.43 34.56 307.87 33.69 307.71 32.04 307.09 32.35 306.27 31.58 305.91 31.68 305.65 31.78 305.65 31.78 305.34 32.81 305.65 34.15 302.41 34.56 300.87 31.22 299.78 32.2 296.64 29.42 295.82 29.47 294.17 14.54 289.18 13.82 288.97 12.43 288.51 12.38 288.51 10.73 287.79 9.08 286.96 9.03 286.96 8.21 286.45 7.79 286.14 7.33 285.78 6.97 285.37 6.87 285.21 3.99 281.51 3.93 281.46 3.37 280.53 3.01 279.86 2.7 279.14 2.39 278.42 2.18 277.7 2.08 277.24 1 271.78"/>
    <path class="cls-2" d="M197.36,120.9l-18.51,70H161.37L149.75,146a37.47,37.47,0,0,1-1.12-7.86h-.2a47.9,47.9,0,0,1-1.26,7.86l-11.92,44.92H117l-18.41-70h17.24l9.86,46.63a56.94,56.94,0,0,1,.93,8H127a38.29,38.29,0,0,1,1.42-8.2l12.69-46.44H158l11.47,47a57.35,57.35,0,0,1,1.12,7.52h.2a50.83,50.83,0,0,1,1-7.81l9.67-46.73Z" transform="translate(0.49 0.49)"/>
    <line class="cls-3" x1="119.38" y1="199.14" x2="114.45" y2="219.6"/>
    <line class="cls-3" x1="186.83" y1="194.59" x2="195.17" y2="201.91"/>
</g>
</svg>
