<svg id="Layer_3" data-name="Layer 3" xmlns="http://www.w3.org/2000/svg" viewBox="0 0 115 90">
  <defs>
    <style>
      .cls-1 {
        fill: #fff;
      }

      .cls-2 {
        fill: #006837;
      }

      .cls-3 {
        fill: #39b54a;
      }

      .cls-4 {
        fill: #0f529d;
      }
    </style>
  </defs>
  <rect class="cls-1" width="115" height="90"/>
  <g id="G_Group" data-name="G Group">
    <path id="G_Bottom" data-name="G Bottom" class="cls-2" d="M73.023,37.25h0v.5a12,12,0,0,1-12,12h0a12,12,0,0,1-12-12v-.5h0a5.5,5.5,0,0,0-5.5-5.5h-.75v-6h.75a11.513,11.513,0,0,1,11.5,11.5v.5a6,6,0,1,0,12,0v-.5Z" transform="translate(7.5 7.5)"/>
    <path id="G_Middle" data-name="G Middle" class="cls-3" d="M71.9,7.711A12.937,12.937,0,0,1,73.023,13V37.25h-6V23.956h0a13.007,13.007,0,0,1-18.879-5.667h0a3,3,0,0,1,5.484-2.439h0a7,7,0,1,0,12.8-5.7h0a3,3,0,1,0,5.484-2.442h0Z" transform="translate(7.5 7.5)"/>
    <path id="G_Top" data-name="G Top" class="cls-2" d="M66.423,10.15h0a3,3,0,1,0,5.484-2.442h0A13.006,13.006,0,0,0,48.144,18.289h0a3,3,0,1,1,5.484-2.439h0a7,7,0,1,1,12.8-5.7Z" transform="translate(7.5 7.5)"/>
  </g>
  <g id="O_Group" data-name="O Group">
    <path id="O_Bottom" data-name="O Bottom" class="cls-2" d="M93.923,10.15h0a3,3,0,0,0,5.484-2.442h0A13.006,13.006,0,0,0,75.644,18.289h0a3,3,0,1,1,5.484-2.439h0a7,7,0,0,1,12.8-5.7Z" transform="translate(7.5 7.5)"/>
    <path id="O_Top" data-name="O Top" class="cls-3" d="M100.523,13a12.991,12.991,0,0,1-6,10.956h0a13.007,13.007,0,0,1-18.879-5.667h0a3,3,0,0,1,5.484-2.439h0a7,7,0,0,0,12.8-5.7h0a3,3,0,0,0,5.484-2.442h0A12.949,12.949,0,0,1,100.523,13Z" transform="translate(7.5 7.5)"/>
  </g>
  <g id="Test_Sub" data-name="Test Sub">
    <path class="cls-4" d="M.1,36.142a1.026,1.026,0,0,0,.771.349.691.691,0,0,0,.748-.627c0-.015,0-.03,0-.045,0-.926-1.574-.512-1.574-1.561a.826.826,0,0,1,.846-.8l.06,0a.94.94,0,0,1,.766.345l-.114.1A.8.8,0,0,0,.952,33.6a.685.685,0,0,0-.747.617l0,.037c0,.938,1.578.52,1.578,1.556a.83.83,0,0,1-.832.83l-.075,0A1.091,1.091,0,0,1,0,36.25Z" transform="translate(7.5 7.5)"/>
    <path class="cls-4" d="M3.713,35.507h-.23c-.43,0-.982.064-.982.525a.466.466,0,0,0,.477.455.311.311,0,0,0,.043,0c.5,0,.692-.431.692-.862Zm.037,1.049a3.722,3.722,0,0,1-.028-.422H3.709A.729.729,0,0,1,3,36.611a.584.584,0,0,1-.639-.525.419.419,0,0,1,0-.05c0-.567.613-.653,1.087-.653h.272v-.128a.529.529,0,0,0-.45-.6.522.522,0,0,0-.131,0,.839.839,0,0,0-.577.234l-.083-.11a1,1,0,0,1,.669-.256.651.651,0,0,1,.717.577.683.683,0,0,1,0,.143v.866a2.744,2.744,0,0,0,.033.443Z" transform="translate(7.5 7.5)"/>
    <path class="cls-4" d="M4.751,36.556V34.713h-.4v-.127h.4v-.657c0-.473.251-.647.544-.647a.708.708,0,0,1,.2.025l-.024.132a.6.6,0,0,0-.178-.025c-.3,0-.391.256-.391.524v.648H5.4v.127H4.9v1.843Z" transform="translate(7.5 7.5)"/>
    <path class="cls-4" d="M7.393,35.45a.739.739,0,0,0-.684-.792c-.021,0-.041,0-.062,0a.809.809,0,0,0-.766.794Zm.074.767a.936.936,0,0,1-.783.392.974.974,0,0,1-.965-.981c0-.026,0-.052,0-.078A.956.956,0,0,1,6.6,34.524l.042,0a.889.889,0,0,1,.9.873c0,.029,0,.057,0,.086s0,.064,0,.095H5.877a.82.82,0,0,0,1.488.55Z" transform="translate(7.5 7.5)"/>
    <path class="cls-4" d="M8.258,36.432a.14.14,0,0,1,.132-.144.147.147,0,0,1,0,.293.139.139,0,0,1-.132-.145v0" transform="translate(7.5 7.5)"/>
    <polygon class="cls-4" points="17.975 44.056 17.975 41.037 19.669 41.037 19.669 41.182 18.132 41.182 18.132 42.423 19.561 42.423 19.561 42.563 18.132 42.563 18.132 44.056 17.975 44.056"/>
    <path class="cls-4" d="M13.8,35.507h-.231c-.429,0-.982.064-.982.525a.466.466,0,0,0,.477.455.311.311,0,0,0,.043,0c.5,0,.693-.431.693-.862Zm.036,1.049a3.722,3.722,0,0,1-.028-.422h-.013a.728.728,0,0,1-.713.477.584.584,0,0,1-.639-.525.419.419,0,0,1,0-.05c0-.567.614-.653,1.087-.653H13.8v-.128a.529.529,0,0,0-.582-.6.837.837,0,0,0-.576.234l-.083-.11a.992.992,0,0,1,.668-.256.651.651,0,0,1,.717.577.683.683,0,0,1,0,.143v.866a2.744,2.744,0,0,0,.033.443Z" transform="translate(7.5 7.5)"/>
    <path class="cls-4" d="M14.658,36.172a.681.681,0,0,0,.576.3.459.459,0,0,0,.5-.414v-.021c0-.315-.31-.388-.6-.465-.321-.085-.514-.226-.514-.52a.553.553,0,0,1,.574-.531l.039,0a.675.675,0,0,1,.6.306l-.111.086a.549.549,0,0,0-.5-.26.412.412,0,0,0-.458.362.243.243,0,0,0,0,.038c0,.235.152.328.511.418s.606.217.606.555a.589.589,0,0,1-.6.582l-.056,0a.815.815,0,0,1-.7-.346Z" transform="translate(7.5 7.5)"/>
    <path class="cls-4" d="M17.307,36.55a.721.721,0,0,1-.263.052.423.423,0,0,1-.449-.395.382.382,0,0,1,0-.083V34.713H16.19v-.126h.4V34.01h.153v.577H17.3v.126h-.552V36.1c0,.272.136.367.329.367a.533.533,0,0,0,.219-.048Z" transform="translate(7.5 7.5)"/>
    <path class="cls-4" d="M17.867,36.432A.141.141,0,0,1,18,36.288a.147.147,0,0,1,0,.293.139.139,0,0,1-.133-.145v0" transform="translate(7.5 7.5)"/>
    <path class="cls-4" d="M21,33.682l-.77,1.889h1.524Zm1.15,2.874-.338-.844h-1.64l-.342.844h-.169l1.261-3.019h.168l1.229,3.019Z" transform="translate(7.5 7.5)"/>
    <path class="cls-4" d="M23.95,36.556V34.713h-.9v1.843H22.9V34.713h-.4v-.127h.4v-.657c0-.473.252-.647.544-.647a.708.708,0,0,1,.2.025l-.024.132a.6.6,0,0,0-.178-.025c-.3,0-.391.256-.391.524v.648h.9v-.657c0-.473.251-.647.548-.647a.751.751,0,0,1,.2.025l-.029.132a.587.587,0,0,0-.177-.025c-.3,0-.392.256-.392.524v.648h.5v.127h-.5v1.843Z" transform="translate(7.5 7.5)"/>
    <path class="cls-4" d="M26.777,35.567a.842.842,0,1,0,0,.072q0-.036,0-.072m-1.851,0a1,1,0,1,1,1,1.045.985.985,0,0,1-1-.966c0-.026,0-.053,0-.079" transform="translate(7.5 7.5)"/>
    <path class="cls-4" d="M27.623,36.556V35.063a4.712,4.712,0,0,0-.016-.477h.144c.008.106.017.333.017.461h.008a.669.669,0,0,1,.642-.52.524.524,0,0,1,.112.008l-.007.141a.555.555,0,0,0-.1-.009c-.42,0-.642.409-.642.916v.973Z" transform="translate(7.5 7.5)"/>
    <path class="cls-4" d="M30.571,35.571a.856.856,0,0,0-.8-.911h-.022a.915.915,0,0,0,0,1.82.855.855,0,0,0,.82-.889v-.019m0,.985v-.47h-.008a.9.9,0,0,1-.815.525,1.045,1.045,0,0,1,0-2.084.893.893,0,0,1,.815.532h.008V33.332h.149v3.224Z" transform="translate(7.5 7.5)"/>
    <path class="cls-4" d="M32.776,35.507h-.231c-.429,0-.981.064-.981.525a.467.467,0,0,0,.477.455l.042,0c.5,0,.693-.431.693-.862Zm.037,1.049a3.506,3.506,0,0,1-.029-.422h-.012a.729.729,0,0,1-.713.477.585.585,0,0,1-.64-.524.436.436,0,0,1,0-.051c0-.567.614-.653,1.087-.653h.273v-.128a.529.529,0,0,0-.45-.6.522.522,0,0,0-.131,0,.839.839,0,0,0-.577.234l-.083-.11a.992.992,0,0,1,.668-.256.651.651,0,0,1,.717.577.683.683,0,0,1,0,.143v.866a2.744,2.744,0,0,0,.033.443Z" transform="translate(7.5 7.5)"/>
    <path class="cls-4" d="M35.523,35.571a.843.843,0,0,0-.771-.909.4.4,0,0,0-.049,0,.915.915,0,0,0,0,1.82.838.838,0,0,0,.823-.853c0-.018,0-.037,0-.055m-1.784.985V33.332h.149v1.727H33.9a.891.891,0,0,1,.815-.532,1.045,1.045,0,0,1,0,2.084.879.879,0,0,1-.815-.525h-.012v.47Z" transform="translate(7.5 7.5)"/>
    <rect class="cls-4" x="43.861" y="40.833" width="0.149" height="3.223"/>
    <path class="cls-4" d="M38.867,35.45a.741.741,0,0,0-.686-.792c-.02,0-.04,0-.06,0a.81.81,0,0,0-.767.794Zm.073.767a.936.936,0,0,1-.783.392.974.974,0,0,1-.964-.982c0-.025,0-.05,0-.075a.956.956,0,0,1,.881-1.026l.043,0a.887.887,0,0,1,.9.878q0,.041,0,.081v.1h-1.66a.82.82,0,0,0,1.488.55Z" transform="translate(7.5 7.5)"/>
    <path class="cls-4" d="M39.731,36.432a.141.141,0,0,1,.133-.144.147.147,0,0,1,0,.293.139.139,0,0,1-.133-.145v0" transform="translate(7.5 7.5)"/>
  </g>
  <g id="Text_Newark" data-name="Text Newark">
    <path class="cls-4" d="M.123,31.75v-6h1c1.334,1.876,3.245,4.344,3.579,4.96h.016c-.058-.777-.05-1.732-.05-2.7V25.75h.785v6H4.505c-.883-1.2-3.2-4.437-3.628-5.138H.861C.9,27.389.9,28.235.9,29.3V31.75Z" transform="translate(7.5 7.5)"/>
    <polygon class="cls-4" points="19.08 36.453 15.526 36.453 15.526 38.532 19.447 38.532 19.33 39.25 14.683 39.25 14.683 33.251 19.263 33.251 19.263 33.96 15.526 33.96 15.526 35.734 19.08 35.734 19.08 36.453"/>
    <path class="cls-4" d="M14.416,31.75l-1.844-6h.884c.443,1.471,1.335,4.385,1.46,5.18h.007c.166-.845,1.1-3.727,1.568-5.18h.843c.417,1.343,1.393,4.5,1.518,5.163h.017c.183-.9,1.109-3.761,1.551-5.163h.852l-1.97,6h-.917c-.425-1.361-1.369-4.386-1.519-5.1h-.008c-.15.76-1.059,3.566-1.552,5.1Z" transform="translate(7.5 7.5)"/>
    <path class="cls-4" d="M25.269,29.206c-.726-1.656-1.068-2.441-1.2-2.847H24.06c-.125.388-.526,1.42-1.126,2.847Zm-2.595.727-.767,1.817h-.868l2.544-6H24.6l2.653,6h-.918l-.792-1.817Z" transform="translate(7.5 7.5)"/>
    <path class="cls-4" d="M29.039,28.471h1.784c.926,0,1.385-.329,1.385-1.048,0-.651-.459-.98-1.351-.98H29.039Zm0,.693V31.75h-.825v-6h2.827c1.21,0,2.027.557,2.027,1.622a1.368,1.368,0,0,1-1.085,1.437c.393.11.927.406.927,1.462v.262a6.275,6.275,0,0,0,.067,1.217h-.854a4.617,4.617,0,0,1-.075-1.225v-.2c0-.887-.342-1.166-1.386-1.166Z" transform="translate(7.5 7.5)"/>
    <path class="cls-4" d="M34.528,25.75h.843v2.958c.9-.786,2.36-1.995,3.478-2.958h1.084l-3.01,2.569,3.2,3.431h-1.1l-2.736-2.973-.917.751V31.75h-.843Z" transform="translate(7.5 7.5)"/>
  </g>
</svg>
