<svg id="Layer_3" data-name="Layer 3" xmlns="http://www.w3.org/2000/svg" viewBox="0 0 229.798 197.965">
  <defs>
    <style>
      .cls-1 {
        fill: #006837;
      }

      .cls-2 {
        fill: #39b54a;
      }
    </style>
  </defs>
  <g>
    <g id="G_Group">
      <path id="G_Bottom" class="cls-1" d="M120.37,148.225h0v1.989a47.75,47.75,0,0,1-47.75,47.751h0a47.75,47.75,0,0,1-47.75-47.751v-1.989h0A21.886,21.886,0,0,0,2.984,126.339H0V102.464l2.985,0a45.81,45.81,0,0,1,45.76,45.759v1.989a23.875,23.875,0,1,0,47.75,0v-1.989Z"/>
      <path id="G_Middle" class="cls-2" d="M115.91,30.684a51.542,51.542,0,0,1,4.46,21.045v96.5H96.5v-52.9h0A51.757,51.757,0,0,1,21.372,72.775h0a11.616,11.616,0,0,1,6.053-15.77A11.616,11.616,0,0,1,43.2,63.059h0A27.853,27.853,0,1,0,94.086,40.4h0c2.793,6.273,9.441,8.715,15.771,6.054,6.011-2.527,8.75-9.4,6.053-15.77Z"/>
      <path id="G_Top" class="cls-1" d="M94.086,40.4h0c2.793,6.273,9.441,8.715,15.771,6.054,6.011-2.527,8.75-9.4,6.053-15.77h0A51.742,51.742,0,0,0,21.372,72.775h0a11.616,11.616,0,0,1,6.053-15.77A11.616,11.616,0,0,1,43.2,63.059h0A27.853,27.853,0,1,1,94.086,40.4Z"/>
    </g>
    <g id="O_Group">
      <path id="O_Bottom" class="cls-1" d="M203.514,40.4h0c2.793,6.273,9.441,8.715,15.77,6.054,6.012-2.527,8.75-9.4,6.054-15.77h0A51.742,51.742,0,0,0,130.8,72.775h0a11.945,11.945,0,1,1,21.824-9.716h0A27.854,27.854,0,1,1,203.514,40.4Z"/>
      <path id="O_Top" class="cls-2" d="M229.8,51.729a51.691,51.691,0,0,1-23.875,43.6h0A51.757,51.757,0,0,1,130.8,72.775h0a11.945,11.945,0,1,1,21.824-9.716h0A27.854,27.854,0,1,0,203.514,40.4h0c2.793,6.273,9.441,8.715,15.77,6.054,6.012-2.527,8.75-9.4,6.054-15.77h0a51.558,51.558,0,0,1,4.46,21.045v0Z"/>
    </g>
  </g>
</svg>
